<?xml version="1.0" encoding="utf-8"?>
<!-- Generator: Adobe Illustrator 18.1.1, SVG Export Plug-In . SVG Version: 6.00 Build 0)  -->
<svg version="1.1" id="Layer_1" xmlns="http://www.w3.org/2000/svg" xmlns:xlink="http://www.w3.org/1999/xlink" x="0px" y="0px"
	 viewBox="3 12.7 113.5 94.8" enable-background="new 3 12.7 113.5 94.8" xml:space="preserve">
<g>
	<path d="M25.9,32.2l-7,29.3H27l0.7-3.7H33l0.6,3.7h8.2l-6.2-29.3L25.9,32.2L25.9,32.2z M28.7,51.6l0.8-4.6l0.6-3.5
		c0-0.1,0-0.2,0.1-0.6c0-0.3,0.1-0.9,0.2-1.6c0.1-0.4,0.1-0.7,0.1-1.1c0-0.3,0.1-0.6,0.1-0.9l0.2,2.8c0.1,0.6,0.1,1,0.1,1.4
		c0,0.4,0.1,0.7,0.1,0.9c0.2,1.9,0.4,3,0.4,3.3c0,0.3,0.1,0.5,0.1,0.5l0.5,3.4L28.7,51.6L28.7,51.6z"/>
	<path d="M65.6,46.5c3.6-0.3,5.5-2.3,5.5-6c0-2.5-0.8-4.5-2.5-6c-1.7-1.5-4.2-2.3-7.7-2.3h-9.2v29.3h11.1c2.6,0,4.8-0.8,6.4-2.3
		c1.6-1.5,2.5-3.5,2.5-6.1c0-2-0.5-3.5-1.4-4.6C69.1,47.4,67.6,46.8,65.6,46.5z M59.6,38.3c0.2,0,0.4,0,0.5,0c0.1,0,0.2,0,0.3,0
		c1.9,0,2.8,0.9,2.8,2.5c0,0.8-0.3,1.4-0.8,1.9c-0.6,0.4-1.3,0.7-2.2,0.7h-0.5L59.6,38.3L59.6,38.3z M62.6,54.5
		c-0.6,0.5-1.4,0.8-2.4,0.8c-0.1,0-0.2,0-0.3,0s-0.2,0-0.4,0v-5.8h0.6c1,0,1.8,0.3,2.4,0.8c0.6,0.5,0.9,1.2,0.9,2.1
		S63.2,54,62.6,54.5z"/>
	<path d="M92.7,53.9c-0.6-0.3-1.2-0.8-1.6-1.5c-0.4-0.7-0.7-1.4-1-2.4c-0.2-0.9-0.4-2-0.4-3.2c0-2.4,0.4-4.3,1.4-5.7
		c0.9-1.4,2.2-2,3.8-2c1.2,0,2.5,0.6,3.6,1.8v-8.1c-1.3-0.5-2.6-0.7-3.9-0.7c-3.9,0-7.1,1.3-9.4,4c-2.4,2.7-3.5,6.3-3.5,10.7
		c0,4.8,1.2,8.5,3.8,11.1c2.2,2.3,5,3.5,8.3,3.5c1.4,0,3-0.3,4.7-1l0.4-8c-1.4,1.3-2.7,1.9-4.1,1.9C94,54.5,93.3,54.3,92.7,53.9z"/>
	<path d="M40.3,95c1-1,1.5-2.5,1.6-4.4c0.1-2-0.5-3.5-1.6-4.6c-0.8-0.9-2-1.3-3.6-1.3L34,84.6l-0.3,11.6l2.9,0.1
		C38.2,96.3,39.4,95.9,40.3,95z M37,87.5L37,87.5c0.6,0,0.9,0.3,1.2,0.8c0.3,0.5,0.4,1.3,0.4,2.2c-0.1,1.9-0.7,2.8-1.7,2.8L37,87.5z
		"/>
	<polygon points="51.7,93.8 49,93.7 49.1,91.9 51.5,92 51.5,89.2 49.2,89.1 49.2,87.7 51.9,87.8 51.9,85 46.1,84.8 45.8,96.4 
		51.6,96.5 	"/>
	<path d="M61.3,96.7l3.5-11.5l-3.4-0.1L60.5,89c-0.1,0.6-0.2,1.2-0.3,1.8c-0.1,0.6-0.2,1.2-0.3,2c-0.1-1.6-0.2-3-0.4-4.3L59,85.1
		L55.7,85L58,96.7L61.3,96.7z"/>
	<polygon points="77.8,93.8 72.7,90.4 77.8,87 77.1,83.6 70.2,88.6 70.2,92.2 77.1,97.3 	"/>
	<polygon points="80.5,97.3 87.4,92.2 87.4,88.7 80.5,83.6 79.8,87 84.9,90.4 79.8,93.9 	"/>
	<path d="M3,12.7v59.6v7.1v28.1h113.5V79.4v-7.1V12.7H3z M109.4,100.4H10.2v-21h99.2L109.4,100.4L109.4,100.4z M10.2,72.3V19.9h99.2
		v52.5H10.2z"/>
</g>
</svg>
