<?xml version="1.0" encoding="utf-8"?>
<!-- Generator: Adobe Illustrator 18.1.1, SVG Export Plug-In . SVG Version: 6.00 Build 0)  -->
<svg version="1.1" id="Layer_1" xmlns="http://www.w3.org/2000/svg" xmlns:xlink="http://www.w3.org/1999/xlink" x="0px" y="0px"
	 viewBox="1.2 41.6 117.6 36.9" enable-background="new 1.2 41.6 117.6 36.9" xml:space="preserve">
<g>
	<path fill="#D3D3D3" d="M26.5,66.5h3l0.3,2.1h4.6L31,52h-5.5l-4,16.6h4.6L26.5,66.5z M27.6,60.4l0.3-2c0,0,0-0.1,0-0.3
		c0-0.2,0.1-0.5,0.1-0.9c0-0.2,0.1-0.4,0.1-0.6c0-0.2,0-0.4,0.1-0.5l0.1,1.6c0,0.3,0.1,0.6,0.1,0.8c0,0.2,0,0.4,0.1,0.5
		c0.1,1.1,0.2,1.7,0.2,1.9c0,0.2,0,0.3,0,0.3L29,63h-1.8L27.6,60.4z"/>
	<path fill="#D3D3D3" d="M50,67.3c0.9-0.9,1.4-2,1.4-3.4c0-1.1-0.3-2-0.8-2.6c-0.6-0.6-1.4-1-2.6-1.2c2.1-0.2,3.1-1.3,3.1-3.4
		c0-1.4-0.5-2.5-1.4-3.4c-0.9-0.9-2.4-1.3-4.3-1.3h-5.2v16.6h6.3C47.9,68.6,49.1,68.2,50,67.3z M44.6,55.5c0.1,0,0.2,0,0.3,0
		c0.1,0,0.1,0,0.2,0c1.1,0,1.6,0.5,1.6,1.4c0,0.5-0.2,0.8-0.5,1.1s-0.7,0.4-1.3,0.4h-0.3V55.5z M45,65.1c0,0-0.1,0-0.2,0
		c-0.1,0-0.1,0-0.2,0v-3.3H45c0.6,0,1,0.1,1.4,0.4s0.5,0.7,0.5,1.2c0,0.5-0.2,0.9-0.5,1.2C46,65,45.5,65.1,45,65.1z"/>
	<path fill="#D3D3D3" d="M64,68.6c0.8,0,1.7-0.2,2.7-0.6l0.3-4.5c-0.8,0.7-1.6,1.1-2.3,1.1c-0.5,0-0.8-0.1-1.2-0.3
		c-0.4-0.2-0.6-0.5-0.9-0.8c-0.2-0.4-0.4-0.8-0.6-1.3c-0.1-0.5-0.2-1.1-0.2-1.8c0-1.4,0.3-2.5,0.8-3.2c0.5-0.8,1.2-1.2,2.1-1.2
		c0.7,0,1.4,0.3,2,1v-4.6C66,52.2,65.2,52,64.5,52c-2.2,0-4,0.8-5.4,2.3c-1.3,1.5-2,3.6-2,6.1c0,2.7,0.7,4.8,2.1,6.3
		C60.6,68,62.1,68.6,64,68.6z"/>
	<path fill="#D3D3D3" d="M95.4,69.7c0.6-0.6,0.8-1.4,0.9-2.5c0-1.1-0.3-2-0.9-2.6c-0.5-0.5-1.1-0.7-2-0.8l-1.5,0l-0.2,6.6l1.7,0
		C94.2,70.4,94.9,70.2,95.4,69.7z M93.5,65.5L93.5,65.5c0.3,0,0.6,0.2,0.7,0.5c0.2,0.3,0.2,0.7,0.2,1.2c0,1.1-0.4,1.6-1,1.6
		L93.5,65.5z"/>
	<polygon fill="#D3D3D3" points="98.5,70.5 101.8,70.6 101.9,69 100.3,69 100.4,68 101.7,68 101.8,66.4 100.4,66.4 100.4,65.5 
		102,65.6 102,64 98.7,63.9 	"/>
	<path fill="#D3D3D3" d="M106,64.1l-1.9-0.1l1.3,6.6l1.8,0.1l2-6.5l-1.9-0.1l-0.5,2.2c-0.1,0.3-0.1,0.6-0.2,1
		c-0.1,0.3-0.1,0.7-0.1,1.1c-0.1-0.9-0.1-1.7-0.2-2.4L106,64.1z"/>
	<polygon fill="#D3D3D3" points="99.1,57.1 95.3,54.5 99.1,51.9 98.6,49.3 93.4,53.2 93.4,55.8 98.6,59.7 	"/>
	<polygon fill="#D3D3D3" points="101.1,59.7 106.4,55.8 106.4,53.2 101.1,49.3 100.7,51.9 104.5,54.5 100.7,57.1 	"/>
	<path fill="#D3D3D3" d="M87.8,41.6h-5.4H1.2v36.9h81.1h5.4h31.1V41.6H87.8z M82.3,73H6.6v-26h75.7C82.3,47.1,82.3,73,82.3,73z
		 M113.4,73H87.8v-26h25.6V73z"/>
</g>
</svg>
