<?xml version="1.0" encoding="utf-8"?>
<!-- Generator: Adobe Illustrator 18.1.1, SVG Export Plug-In . SVG Version: 6.00 Build 0)  -->
<svg version="1.1" id="Layer_1" xmlns="http://www.w3.org/2000/svg" xmlns:xlink="http://www.w3.org/1999/xlink" x="0px" y="0px"
	 viewBox="0 83.1 120 37.6" enable-background="new 0 83.1 120 37.6" xml:space="preserve">
<g>
	<path fill="#FDCE0B" d="M25.8,108.6h3.1l0.3,2.2H34l-3.6-16.9h-5.6l-4.1,16.9h4.7L25.8,108.6z M26.9,102.3l0.3-2.1c0,0,0-0.1,0-0.3
		c0-0.2,0.1-0.5,0.1-0.9c0-0.2,0.1-0.4,0.1-0.6c0-0.2,0-0.4,0.1-0.5l0.1,1.6c0,0.3,0.1,0.6,0.1,0.8c0,0.2,0,0.4,0.1,0.5
		c0.1,1.1,0.2,1.7,0.2,2c0,0.2,0,0.3,0,0.3l0.3,2h-2L26.9,102.3z"/>
	<path fill="#FDCE0B" d="M49.7,109.4c0.9-0.9,1.4-2.1,1.4-3.5c0-1.1-0.3-2.1-0.8-2.7c-0.5-0.6-1.4-1-2.7-1.2
		c2.2-0.2,3.2-1.3,3.2-3.5c0-1.4-0.5-2.6-1.4-3.5c-0.9-0.9-2.5-1.3-4.4-1.3h-5.3v16.9H46C47.5,110.7,48.8,110.2,49.7,109.4z
		 M44.2,97.3c0.1,0,0.2,0,0.3,0c0.1,0,0.1,0,0.2,0c1.1,0,1.6,0.5,1.6,1.4c0,0.4-0.2,0.8-0.5,1.1c-0.3,0.3-0.7,0.4-1.3,0.4h-0.3V97.3
		z M44.6,107.1c0,0-0.1,0-0.2,0c-0.1,0-0.1,0-0.2,0v-3.4h0.4c0.6,0,1,0.1,1.4,0.4c0.3,0.3,0.5,0.7,0.5,1.2s-0.2,0.9-0.5,1.2
		C45.6,106.9,45.2,107.1,44.6,107.1z"/>
	<path fill="#FDCE0B" d="M64,110.7c0.8,0,1.7-0.2,2.8-0.5l0.3-4.6c-0.8,0.7-1.5,1.1-2.4,1.1c-0.4,0-0.8-0.1-1.2-0.3
		c-0.4-0.2-0.6-0.5-0.9-0.8c-0.3-0.3-0.4-0.8-0.5-1.3s-0.2-1.1-0.2-1.8c0-1.4,0.3-2.5,0.8-3.3s1.2-1.2,2.2-1.2c0.7,0,1.4,0.3,2.1,1
		v-4.7c-0.7-0.3-1.5-0.4-2.3-0.4c-2.3,0-4.1,0.8-5.4,2.4c-1.3,1.5-2.1,3.6-2.1,6.2c0,2.8,0.7,4.8,2.2,6.4
		C60.5,110,62.1,110.7,64,110.7z"/>
	<path fill="#FDCE0B" d="M96,111.8c0.5-0.6,0.8-1.4,0.9-2.6c0-1.1-0.3-2.1-0.9-2.7c-0.5-0.5-1.1-0.7-2.1-0.8h-1.5l-0.2,6.7h1.6
		C94.9,112.5,95.5,112.3,96,111.8z M94.1,107.4L94.1,107.4c0.3,0,0.5,0.2,0.7,0.5c0.2,0.3,0.2,0.7,0.2,1.2c0,1.1-0.4,1.6-1,1.6
		L94.1,107.4z"/>
	<polygon fill="#FDCE0B" points="99.2,112.6 102.5,112.7 102.7,111.1 101.1,111 101.1,110 102.4,110 102.5,108.5 101.1,108.4 
		101.1,107.5 102.8,107.6 102.8,106 99.4,105.9 	"/>
	<path fill="#FDCE0B" d="M106.9,106.1l-2-0.1l1.3,6.8l1.8,0.1l2.1-6.7l-2-0.1l-0.5,2.2c-0.1,0.3-0.1,0.6-0.2,1
		c-0.1,0.3-0.1,0.7-0.1,1.1c-0.1-0.9-0.1-1.7-0.2-2.5L106.9,106.1z"/>
	<polygon fill="#FDCE0B" points="99.8,98.9 95.9,96.3 99.8,93.6 99.3,91 93.9,94.9 93.9,97.6 99.3,101.6 	"/>
	<polygon fill="#FDCE0B" points="101.8,101.6 107.2,97.7 107.2,94.9 101.8,91 101.4,93.7 105.3,96.4 101.4,99 	"/>
	<path fill="#FDCE0B" d="M88.3,83.1h-5.5H0v37.6h82.7h5.5H120V83.1H88.3z M82.7,115.1H5.5V88.7h77.2V115.1z M114.4,115.1H88.3V88.7
		h26.1V115.1z"/>
</g>
</svg>
