<?xml version="1.0" encoding="utf-8"?>
<!-- Generator: Adobe Illustrator 18.1.1, SVG Export Plug-In . SVG Version: 6.00 Build 0)  -->
<svg version="1.1" id="Layer_1" xmlns="http://www.w3.org/2000/svg" xmlns:xlink="http://www.w3.org/1999/xlink" x="0px" y="0px"
	 viewBox="2.1 11.8 115.4 96.4" enable-background="new 2.1 11.8 115.4 96.4" xml:space="preserve">
<g>
	<path fill="#FDCE0B" d="M25.3,31.5l-7.2,29.8h8.3l0.7-3.8h5.4l0.6,3.8h8.3l-6.3-29.8H25.3z M28.2,51.3l0.8-4.7l0.6-3.6
		c0-0.1,0-0.2,0.1-0.6c0-0.3,0.1-0.9,0.2-1.7c0.1-0.4,0.1-0.8,0.2-1.1c0-0.3,0.1-0.6,0.1-0.9l0.2,2.8c0.1,0.6,0.1,1.1,0.2,1.4
		s0.1,0.7,0.1,0.9c0.2,2,0.4,3.1,0.4,3.4c0,0.3,0.1,0.5,0.1,0.5l0.5,3.5L28.2,51.3L28.2,51.3z"/>
	<path fill="#FDCE0B" d="M65.6,46c3.7-0.3,5.6-2.3,5.6-6.1c0-2.5-0.8-4.6-2.6-6.1c-1.7-1.5-4.3-2.3-7.8-2.3h-9.3v29.8h11.3
		c2.7,0,4.9-0.8,6.5-2.3c1.7-1.6,2.5-3.6,2.5-6.2c0-2-0.5-3.6-1.5-4.7C69.3,47,67.8,46.3,65.6,46z M59.5,37.8c0.2,0,0.4,0,0.5,0
		c0.1,0,0.2,0,0.3,0c1.9,0,2.8,0.9,2.8,2.6c0,0.8-0.3,1.4-0.8,1.9c-0.6,0.5-1.3,0.7-2.3,0.7h-0.5L59.5,37.8L59.5,37.8z M62.6,54.2
		C62,54.8,61.2,55,60.2,55c-0.1,0-0.2,0-0.3,0s-0.2,0-0.4,0v-5.9h0.6c1.1,0,1.9,0.3,2.5,0.8c0.6,0.5,0.9,1.2,0.9,2.1
		S63.2,53.7,62.6,54.2z"/>
	<path fill="#FDCE0B" d="M93.3,53.7c-0.6-0.3-1.2-0.8-1.6-1.5c-0.4-0.7-0.8-1.4-1-2.4c-0.2-0.9-0.4-2-0.4-3.2c0-2.5,0.5-4.4,1.4-5.8
		c0.9-1.4,2.2-2.1,3.8-2.1c1.3,0,2.5,0.6,3.7,1.8v-8.2c-1.4-0.5-2.7-0.7-4-0.7c-4,0-7.2,1.4-9.6,4.1c-2.4,2.7-3.6,6.4-3.6,10.9
		c0,4.8,1.3,8.6,3.8,11.2c2.3,2.4,5.1,3.5,8.4,3.5c1.4,0,3-0.3,4.8-1l0.5-8.1c-1.4,1.3-2.8,1.9-4.2,1.9C94.6,54.2,93.9,54,93.3,53.7
		z"/>
	<path fill="#FDCE0B" d="M39.9,95.4c1-1,1.5-2.5,1.6-4.5c0.1-2-0.5-3.5-1.6-4.7c-0.8-0.9-2.1-1.3-3.6-1.4l-2.7-0.1l-0.3,11.8l3,0.1
		C37.8,96.7,39.1,96.2,39.9,95.4z M36.6,87.8L36.6,87.8c0.6,0,1,0.3,1.2,0.8c0.3,0.5,0.4,1.3,0.4,2.2c-0.1,1.9-0.7,2.9-1.8,2.9
		L36.6,87.8z"/>
	<polygon fill="#FDCE0B" points="51.6,94.1 48.8,94.1 48.9,92.3 51.3,92.3 51.4,89.5 49,89.5 49,87.9 51.8,88 51.8,85.2 45.9,85 
		45.6,96.8 51.5,97 	"/>
	<path fill="#FDCE0B" d="M61.3,97.1l3.5-11.7l-3.5-0.1l-0.9,3.9c-0.1,0.6-0.2,1.2-0.3,1.8c-0.1,0.6-0.2,1.3-0.3,2
		c-0.1-1.6-0.2-3-0.4-4.3L59,85.4l-3.3-0.1L58,97.1L61.3,97.1z"/>
	<polygon fill="#FDCE0B" points="78,94.2 72.9,90.7 78,87.2 77.4,83.8 70.4,88.9 70.4,92.5 77.4,97.7 	"/>
	<polygon fill="#FDCE0B" points="80.8,97.7 87.8,92.5 87.8,89 80.8,83.8 80.2,87.3 85.3,90.8 80.2,94.3 	"/>
	<path fill="#FDCE0B" d="M2.1,11.8v60.6v7.2v28.6h115.4V79.6v-7.2V11.8H2.1z M110.2,100.9H9.3V79.6h100.9L110.2,100.9L110.2,100.9z
		 M9.3,72.4V19h100.9v53.3H9.3z"/>
</g>
</svg>
