<?xml version="1.0" encoding="utf-8"?>
<!-- Generator: Adobe Illustrator 18.1.1, SVG Export Plug-In . SVG Version: 6.00 Build 0)  -->
<svg version="1.1" id="Layer_1" xmlns="http://www.w3.org/2000/svg" xmlns:xlink="http://www.w3.org/1999/xlink" x="0px" y="0px"
	 viewBox="1 41.7 117.1 36.7" enable-background="new 1 41.7 117.1 36.7" xml:space="preserve">
<g>
	<path d="M26.2,66.5h3l0.3,2.1h4.6l-3.5-16.5h-5.5l-4,16.5h4.6L26.2,66.5z M27.2,60.4l0.3-2c0,0,0-0.1,0-0.3s0.1-0.5,0.1-0.9
		c0-0.2,0.1-0.4,0.1-0.6c0-0.2,0-0.4,0.1-0.5l0.1,1.6c0,0.3,0.1,0.6,0.1,0.8c0,0.2,0,0.4,0.1,0.5c0.1,1.1,0.2,1.7,0.2,1.9
		c0,0.2,0,0.3,0,0.3l0.3,1.9h-1.9L27.2,60.4z"/>
	<path d="M49.5,67.3c0.9-0.9,1.4-2,1.4-3.4c0-1.1-0.3-2-0.8-2.6s-1.4-1-2.6-1.2c2.1-0.2,3.1-1.3,3.1-3.4c0-1.4-0.5-2.5-1.4-3.4
		c-0.9-0.9-2.4-1.3-4.3-1.3h-5.2v16.5h6.2C47.4,68.6,48.6,68.1,49.5,67.3z M44.1,55.5c0.1,0,0.2,0,0.3,0c0.1,0,0.1,0,0.2,0
		c1.1,0,1.6,0.5,1.6,1.4c0,0.5-0.2,0.8-0.5,1.1c-0.3,0.3-0.7,0.4-1.3,0.4h-0.3V55.5z M44.5,65.1c0,0-0.1,0-0.2,0s-0.1,0-0.2,0v-3.3
		h0.4c0.6,0,1,0.1,1.4,0.4c0.3,0.3,0.5,0.7,0.5,1.2s-0.2,0.9-0.5,1.2C45.5,64.9,45.1,65.1,44.5,65.1z"/>
	<path d="M63.5,68.6c0.8,0,1.7-0.2,2.7-0.5l0.3-4.5c-0.8,0.7-1.5,1.1-2.3,1.1c-0.5,0-0.8-0.1-1.2-0.3c-0.4-0.2-0.6-0.5-0.9-0.8
		s-0.4-0.8-0.5-1.3c-0.1-0.5-0.2-1.1-0.2-1.8c0-1.4,0.3-2.4,0.8-3.2c0.5-0.8,1.2-1.2,2.1-1.2c0.7,0,1.4,0.3,2,1v-4.6
		c-0.7-0.3-1.5-0.4-2.2-0.4c-2.2,0-4,0.8-5.3,2.3c-1.3,1.5-2,3.5-2,6.1c0,2.7,0.7,4.8,2.1,6.2C60,67.9,61.6,68.6,63.5,68.6z"/>
	<path d="M94.7,69.6c0.5-0.6,0.8-1.4,0.9-2.5c0-1.1-0.3-2-0.9-2.6c-0.5-0.5-1.1-0.7-2-0.8l-1.5,0L91,70.3l1.6,0
		C93.5,70.4,94.2,70.1,94.7,69.6z M92.9,65.5L92.9,65.5c0.3,0,0.5,0.2,0.7,0.5c0.2,0.3,0.2,0.7,0.2,1.2c0,1.1-0.4,1.6-1,1.6
		L92.9,65.5z"/>
	<polygon points="97.8,70.4 101.1,70.5 101.2,69 99.7,68.9 99.7,67.9 101,68 101.1,66.4 99.7,66.4 99.7,65.5 101.3,65.6 101.3,64 
		98,63.9 	"/>
	<path d="M105.3,64.1l-1.9-0.1l1.3,6.6l1.8,0.1l2-6.5l-1.9-0.1l-0.5,2.2c-0.1,0.3-0.1,0.6-0.2,1c-0.1,0.3-0.1,0.7-0.1,1.1
		c-0.1-0.9-0.1-1.7-0.2-2.4L105.3,64.1z"/>
	<polygon points="98.4,57.1 94.6,54.5 98.4,51.9 97.9,49.3 92.7,53.2 92.7,55.8 97.9,59.7 	"/>
	<polygon points="100.4,59.7 105.6,55.9 105.6,53.2 100.4,49.4 100,51.9 103.8,54.5 100,57.1 	"/>
	<path d="M87.2,41.7h-5.4H1v36.7h80.8h5.4h30.9V41.7H87.2z M81.7,73H6.4V47.1h75.4V73z M112.7,73H87.2V47.1h25.5V73z"/>
</g>
</svg>
