<?xml version="1.0" encoding="utf-8"?>
<!-- Generator: Adobe Illustrator 18.1.1, SVG Export Plug-In . SVG Version: 6.00 Build 0)  -->
<svg version="1.1" id="Layer_1" xmlns="http://www.w3.org/2000/svg" xmlns:xlink="http://www.w3.org/1999/xlink" x="0px" y="0px"
	 viewBox="1.9 11.5 116 96.9" enable-background="new 1.9 11.5 116 96.9" xml:space="preserve">
<g>
	<path fill="#D3D3D3" d="M25.3,31.4l-7.2,30h8.4l0.7-3.8h5.4l0.6,3.8h8.4l-6.3-30H25.3z M28.2,51.2l0.8-4.7l0.6-3.6
		c0-0.1,0-0.2,0.1-0.6c0-0.3,0.1-0.9,0.2-1.7c0.1-0.4,0.1-0.8,0.2-1.1c0-0.3,0.1-0.6,0.1-0.9l0.2,2.8c0.1,0.6,0.1,1.1,0.2,1.4
		c0,0.4,0.1,0.7,0.1,0.9c0.2,2,0.4,3.1,0.4,3.4c0,0.3,0.1,0.5,0.1,0.5l0.5,3.5L28.2,51.2L28.2,51.2z"/>
	<path fill="#D3D3D3" d="M65.8,46c3.7-0.3,5.6-2.3,5.6-6.1c0-2.5-0.8-4.6-2.6-6.2c-1.7-1.5-4.3-2.3-7.8-2.3h-9.4v30h11.3
		c2.7,0,4.9-0.8,6.5-2.4c1.7-1.6,2.5-3.6,2.5-6.2c0-2.1-0.5-3.6-1.5-4.7C69.4,47,67.9,46.3,65.8,46z M59.7,37.6c0.2,0,0.4,0,0.5,0
		c0.1,0,0.2,0,0.3,0c1.9,0,2.8,0.9,2.8,2.6c0,0.8-0.3,1.4-0.8,1.9c-0.6,0.5-1.3,0.7-2.3,0.7h-0.5L59.7,37.6L59.7,37.6z M62.8,54.2
		c-0.6,0.5-1.4,0.8-2.4,0.8c-0.1,0-0.2,0-0.3,0c-0.1,0-0.2,0-0.4,0v-5.9h0.6c1.1,0,1.9,0.3,2.5,0.8c0.6,0.5,0.9,1.2,0.9,2.1
		S63.4,53.7,62.8,54.2z"/>
	<path fill="#D3D3D3" d="M93.5,53.6c-0.6-0.3-1.2-0.8-1.6-1.5s-0.8-1.4-1-2.4c-0.2-0.9-0.4-2-0.4-3.2c0-2.5,0.5-4.4,1.4-5.9
		c0.9-1.4,2.2-2.1,3.9-2.1c1.3,0,2.5,0.6,3.7,1.8v-8.2c-1.4-0.5-2.7-0.7-4-0.7c-4,0-7.2,1.4-9.6,4.1c-2.4,2.7-3.6,6.4-3.6,11
		c0,4.9,1.3,8.6,3.8,11.3c2.3,2.4,5.1,3.6,8.5,3.6c1.4,0,3-0.3,4.8-1l0.5-8.1c-1.4,1.3-2.8,1.9-4.2,1.9C94.9,54.1,94.2,54,93.5,53.6
		z"/>
	<path fill="#D3D3D3" d="M39.9,95.5c1-1,1.5-2.5,1.6-4.5c0.1-2-0.5-3.6-1.6-4.7c-0.8-0.9-2.1-1.3-3.7-1.4l-2.7-0.1l-0.3,11.8l3,0.1
		C37.8,96.8,39.1,96.4,39.9,95.5z M36.6,88L36.6,88c0.6,0,1,0.3,1.2,0.8c0.3,0.5,0.4,1.3,0.4,2.2c-0.1,1.9-0.7,2.9-1.8,2.9L36.6,88z
		"/>
	<polygon fill="#D3D3D3" points="51.6,94.3 48.9,94.3 48.9,92.4 51.4,92.5 51.5,89.7 49,89.6 49.1,88.1 51.8,88.2 51.9,85.3 
		45.9,85.2 45.6,97 51.6,97.2 	"/>
	<path fill="#D3D3D3" d="M61.4,97.3l3.5-11.7l-3.5-0.1l-0.9,3.9c-0.1,0.6-0.2,1.2-0.3,1.8c-0.1,0.6-0.2,1.3-0.3,2
		c-0.1-1.6-0.2-3.1-0.4-4.3l-0.5-3.4l-3.4-0.1l2.4,11.9L61.4,97.3z"/>
	<polygon fill="#D3D3D3" points="78.3,94.4 73.1,90.9 78.3,87.4 77.6,83.9 70.6,89.1 70.6,92.7 77.6,97.9 	"/>
	<polygon fill="#D3D3D3" points="81,97.9 88.1,92.7 88.1,89.1 81,83.9 80.4,87.4 85.5,90.9 80.4,94.4 	"/>
	<path fill="#D3D3D3" d="M1.9,11.5v60.9v7.3v28.7h116V79.7v-7.3V11.5H1.9z M110.6,101.1H9.2V79.7h101.4L110.6,101.1L110.6,101.1z
		 M9.2,72.4V18.8h101.4v53.6H9.2z"/>
</g>
</svg>
